<svg width="36" height="36" viewBox="0 0 36 36" fill="none" xmlns="http://www.w3.org/2000/svg">
<path d="M26.175 34.125C24.48 34.125 22.695 33.72 20.85 32.94C19.05 32.175 17.235 31.125 15.465 29.85C13.695 28.56 12 27.105 10.41 25.53C8.82 23.925 7.38 22.23 6.105 20.49C4.815 18.69 3.78 16.905 3.045 15.15C2.265 13.305 1.875 11.505 1.875 9.81C1.875 8.64 2.085 7.53 2.49 6.495C2.925 5.415 3.585 4.44 4.5 3.585C5.655 2.46 6.975 1.875 8.385 1.875C8.97 1.875 9.57 2.01 10.08 2.25C10.665 2.52 11.16 2.925 11.52 3.465L15 8.37C15.315 8.805 15.555 9.225 15.72 9.645C15.915 10.095 16.02 10.545 16.02 10.98C16.02 11.55 15.855 12.105 15.54 12.63C15.315 13.035 14.97 13.47 14.535 13.905L13.515 14.97C13.53 15.015 13.545 15.045 13.56 15.075C13.74 15.39 14.1 15.93 14.79 16.74C15.51 17.58 16.215 18.33 16.905 19.05C17.805 19.935 18.525 20.61 19.215 21.18C20.07 21.9 20.625 22.26 20.955 22.425L20.925 22.5L22.02 21.42C22.485 20.955 22.935 20.61 23.37 20.385C24.195 19.875 25.245 19.785 26.295 20.22C26.685 20.385 27.105 20.61 27.555 20.925L32.535 24.465C33.075 24.84 33.495 25.32 33.735 25.89C33.96 26.46 34.065 26.985 34.065 27.51C34.065 28.23 33.9 28.95 33.585 29.625C33.27 30.3 32.88 30.885 32.385 31.425C31.53 32.37 30.6 33.045 29.52 33.48C28.485 33.9 27.36 34.125 26.175 34.125ZM8.385 4.125C7.56 4.125 6.795 4.485 6.06 5.205C5.385 5.85 4.89 6.555 4.59 7.32C4.275 8.1 4.125 8.925 4.125 9.81C4.125 11.205 4.455 12.72 5.115 14.28C5.79 15.87 6.735 17.52 7.935 19.17C9.135 20.82 10.5 22.425 12 23.94C13.5 25.425 15.12 26.805 16.785 28.02C18.405 29.205 20.07 30.165 21.72 30.855C24.285 31.95 26.685 32.205 28.665 31.38C29.43 31.065 30.105 30.585 30.72 29.895C31.065 29.52 31.335 29.115 31.56 28.635C31.74 28.26 31.83 27.87 31.83 27.48C31.83 27.24 31.785 27 31.665 26.73C31.635 26.655 31.53 26.475 31.245 26.28L26.265 22.74C25.965 22.53 25.695 22.38 25.44 22.275C25.05 22.125 24.795 22.11 24.465 22.32C24.165 22.47 23.895 22.695 23.595 22.995L22.455 24.12C21.87 24.69 20.97 24.825 20.28 24.57L19.875 24.39C19.26 24.06 18.54 23.55 17.745 22.875C17.01 22.26 16.26 21.555 15.3 20.61C14.55 19.845 13.83 19.05 13.065 18.18C12.36 17.355 11.85 16.65 11.535 16.065L11.34 15.615C11.25 15.285 11.22 15.09 11.22 14.88C11.22 14.34 11.415 13.86 11.79 13.485L12.915 12.315C13.215 12.015 13.44 11.73 13.59 11.475C13.71 11.28 13.755 11.115 13.755 10.965C13.755 10.845 13.71 10.665 13.635 10.485C13.545 10.23 13.38 9.975 13.17 9.675L9.69 4.755C9.54 4.545 9.36 4.395 9.135 4.29C8.895 4.185 8.64 4.125 8.385 4.125ZM20.925 22.515L20.685 23.535L21.09 22.485C21.03 22.47 20.97 22.485 20.925 22.515Z" fill="#25B42B"/>
<path d="M25.5002 13.0789C25.2152 13.0789 24.9302 12.9739 24.7052 12.7489L21.7052 9.74891C21.2702 9.31391 21.2702 8.59391 21.7052 8.15891C22.1402 7.72391 22.8602 7.72391 23.2952 8.15891L25.5002 10.3639L30.7052 5.17391C31.1402 4.73891 31.8602 4.73891 32.2952 5.17391C32.7302 5.60891 32.7302 6.32891 32.2952 6.76391L26.2952 12.7639C26.0702 12.9589 25.7852 13.0789 25.5002 13.0789Z" fill="#25B42B"/>
</svg>
