<svg width="17" height="16" viewBox="0 0 17 16" fill="none" xmlns="http://www.w3.org/2000/svg">
<mask id="mask0_441_31847" style="mask-type:alpha" maskUnits="userSpaceOnUse" x="0" y="0" width="17" height="16">
<path fill-rule="evenodd" clip-rule="evenodd" d="M16.7803 6.54545H9.15236V9.63636H13.5431C13.1337 11.6 11.4221 12.7273 9.15236 12.7273C6.47329 12.7273 4.31515 10.6182 4.31515 8C4.31515 5.38182 6.47329 3.27273 9.15236 3.27273C10.3058 3.27273 11.3477 3.67273 12.1663 4.32727L14.5477 2C13.0965 0.763636 11.2361 0 9.15236 0C4.61282 0 0.966309 3.56364 0.966309 8C0.966309 12.4364 4.61282 16 9.15236 16C13.2454 16 16.9663 13.0909 16.9663 8C16.9663 7.52727 16.8919 7.01818 16.7803 6.54545Z" fill="white"/>
</mask>
<g mask="url(#mask0_441_31847)">
<path d="M0.222168 12.728V3.27344L6.54775 8.00071L0.222168 12.728Z" fill="#FBBC05"/>
</g>
<mask id="mask1_441_31847" style="mask-type:alpha" maskUnits="userSpaceOnUse" x="0" y="0" width="17" height="16">
<path fill-rule="evenodd" clip-rule="evenodd" d="M16.7803 6.54545H9.15236V9.63636H13.5431C13.1337 11.6 11.4221 12.7273 9.15236 12.7273C6.47329 12.7273 4.31515 10.6182 4.31515 8C4.31515 5.38182 6.47329 3.27273 9.15236 3.27273C10.3058 3.27273 11.3477 3.67273 12.1663 4.32727L14.5477 2C13.0965 0.763636 11.2361 0 9.15236 0C4.61282 0 0.966309 3.56364 0.966309 8C0.966309 12.4364 4.61282 16 9.15236 16C13.2454 16 16.9663 13.0909 16.9663 8C16.9663 7.52727 16.8919 7.01818 16.7803 6.54545Z" fill="white"/>
</mask>
<g mask="url(#mask1_441_31847)">
<path d="M0.222168 3.27344L6.54775 8.00071L9.1524 5.78253L18.0826 4.36435V-0.726562H0.222168V3.27344Z" fill="#EA4335"/>
</g>
<mask id="mask2_441_31847" style="mask-type:alpha" maskUnits="userSpaceOnUse" x="0" y="0" width="17" height="16">
<path fill-rule="evenodd" clip-rule="evenodd" d="M16.7803 6.54545H9.15236V9.63636H13.5431C13.1337 11.6 11.4221 12.7273 9.15236 12.7273C6.47329 12.7273 4.31515 10.6182 4.31515 8C4.31515 5.38182 6.47329 3.27273 9.15236 3.27273C10.3058 3.27273 11.3477 3.67273 12.1663 4.32727L14.5477 2C13.0965 0.763636 11.2361 0 9.15236 0C4.61282 0 0.966309 3.56364 0.966309 8C0.966309 12.4364 4.61282 16 9.15236 16C13.2454 16 16.9663 13.0909 16.9663 8C16.9663 7.52727 16.8919 7.01818 16.7803 6.54545Z" fill="white"/>
</mask>
<g mask="url(#mask2_441_31847)">
<path d="M0.222168 12.728L11.385 4.36435L14.3245 4.72798L18.0826 -0.726562V16.728H0.222168V12.728Z" fill="#34A853"/>
</g>
<mask id="mask3_441_31847" style="mask-type:alpha" maskUnits="userSpaceOnUse" x="0" y="0" width="17" height="16">
<path fill-rule="evenodd" clip-rule="evenodd" d="M16.7803 6.54545H9.15236V9.63636H13.5431C13.1337 11.6 11.4221 12.7273 9.15236 12.7273C6.47329 12.7273 4.31515 10.6182 4.31515 8C4.31515 5.38182 6.47329 3.27273 9.15236 3.27273C10.3058 3.27273 11.3477 3.67273 12.1663 4.32727L14.5477 2C13.0965 0.763636 11.2361 0 9.15236 0C4.61282 0 0.966309 3.56364 0.966309 8C0.966309 12.4364 4.61282 16 9.15236 16C13.2454 16 16.9663 13.0909 16.9663 8C16.9663 7.52727 16.8919 7.01818 16.7803 6.54545Z" fill="white"/>
</mask>
<g mask="url(#mask3_441_31847)">
<path d="M18.0828 16.728L6.54794 8.00071L5.05957 6.9098L18.0828 3.27344V16.728Z" fill="#4285F4"/>
</g>
</svg>
