<svg width="18" height="18" viewBox="0 0 18 18" fill="none" xmlns="http://www.w3.org/2000/svg">
<path d="M15.9669 0.75H1.8204C1.17218 0.75 0.645508 1.28404 0.645508 1.93962V16.0604C0.645508 16.716 1.17218 17.25 1.8204 17.25H15.9669C16.6152 17.25 17.1455 16.716 17.1455 16.0604V1.93962C17.1455 1.28404 16.6152 0.75 15.9669 0.75ZM5.63234 14.8929H3.1868V7.01853H5.63602V14.8929H5.63234ZM4.40957 5.94308C3.62508 5.94308 2.9916 5.30592 2.9916 4.52511C2.9916 3.74431 3.62508 3.10714 4.40957 3.10714C5.19037 3.10714 5.82754 3.74431 5.82754 4.52511C5.82754 5.3096 5.19406 5.94308 4.40957 5.94308ZM14.7994 14.8929H12.3539V11.0625C12.3539 10.1491 12.3355 8.97422 11.0832 8.97422C9.8089 8.97422 9.6137 9.96864 9.6137 10.9962V14.8929H7.16816V7.01853H9.51426V8.09397H9.54741C9.8752 7.47522 10.6744 6.82333 11.864 6.82333C14.339 6.82333 14.7994 8.45491 14.7994 10.5763V14.8929Z" fill="#2867B2"/>
</svg>
